<svg width="1101" height="268" viewBox="0 0 1101 268" fill="none" xmlns="http://www.w3.org/2000/svg">
<g filter="url(#filter0_i_616_1481)">
<path d="M492.026 61.3623C496.86 68.1299 501.782 76.875 506.792 87.5977C511.89 98.2324 516.812 109.922 521.558 122.666C526.304 135.41 530.566 148.462 534.346 161.821C538.213 175.093 541.377 187.881 543.838 200.186C546.299 212.49 547.705 223.433 548.057 233.013C548.145 237.671 546.035 240 541.729 240H509.824C505.693 240 503.54 237.935 503.364 233.804C503.013 223.96 501.431 212.007 498.618 197.944H426.636C424.175 211.655 422.769 223.608 422.417 233.804C422.241 237.935 420 240 415.693 240H384.448C382.866 240 381.548 239.561 380.493 238.682C379.438 237.715 378.955 236.089 379.043 233.804C379.482 224.048 380.889 212.974 383.262 200.581C385.723 188.101 388.887 175.181 392.754 161.821C396.621 148.462 400.928 135.41 405.674 122.666C410.42 109.834 415.342 98.1006 420.439 87.4658C425.537 76.8311 430.503 68.1299 435.337 61.3623C437.886 57.7588 440.566 55.1221 443.379 53.4521C446.279 51.7822 449.839 50.9473 454.058 50.9473H473.042C477.349 50.9473 480.952 51.7822 483.853 53.4521C486.753 55.1221 489.478 57.7588 492.026 61.3623ZM462.231 92.6074C456.431 101.836 451.113 112.866 446.279 125.698C441.445 138.53 437.271 151.714 433.755 165.249H490.972C487.28 151.714 483.018 138.53 478.184 125.698C473.35 112.866 468.296 101.836 463.022 92.6074H462.231ZM620.171 243.296C588.882 243.296 573.237 224.355 573.237 186.475L573.105 119.502C573.105 117.393 573.545 115.767 574.424 114.624C578.115 109.79 583.521 104.561 590.64 98.9355C591.87 98.0566 592.969 97.6172 593.936 97.6172C595.078 97.6172 596.177 98.0566 597.231 98.9355C601.011 101.836 604.175 104.561 606.724 107.109C609.36 109.658 611.602 112.163 613.447 114.624C614.326 115.767 614.766 117.393 614.766 119.502V182.783C614.766 201.855 622.324 211.392 637.441 211.392C644.912 211.392 650.889 208.799 655.371 203.613C659.854 198.34 662.095 191.221 662.095 182.256V119.502C662.095 117.393 662.534 115.767 663.413 114.624C667.104 109.79 672.51 104.561 679.629 98.9355C680.859 98.0566 681.958 97.6172 682.925 97.6172C684.067 97.6172 685.166 98.0566 686.221 98.9355C690 101.836 693.164 104.561 695.713 107.109C698.35 109.658 700.591 112.163 702.437 114.624C703.315 115.767 703.755 117.393 703.755 119.502V233.936C703.755 235.605 703.184 237.056 702.041 238.286C700.898 239.429 699.448 240 697.69 240H677.915C676.509 240 675.234 239.824 674.092 239.473C673.037 239.033 672.026 238.242 671.06 237.1L662.886 226.553H661.963C660.557 228.574 658.359 230.903 655.371 233.54C652.471 236.177 648.208 238.462 642.583 240.396C637.046 242.329 629.575 243.296 620.171 243.296ZM790.239 243.296C760.884 243.296 746.206 228.047 746.206 197.549V135.718H731.309C728.672 135.718 726.826 135.19 725.771 134.136C724.805 132.993 724.321 131.104 724.321 128.467V112.251C724.321 109.614 724.805 107.769 725.771 106.714C726.826 105.571 728.672 105 731.309 105H746.206V83.7744C746.206 81.665 746.646 80.0391 747.524 78.8965C751.216 74.0625 756.621 68.833 763.74 63.208C764.971 62.3291 766.069 61.8896 767.036 61.8896C768.091 61.8896 769.146 62.3291 770.2 63.208C773.979 66.1084 777.144 68.833 779.692 71.3818C782.329 73.9307 784.57 76.4355 786.416 78.8965C787.295 80.0391 787.734 81.665 787.734 83.7744V105H811.069C813.706 105 815.508 105.571 816.475 106.714C817.529 107.769 818.057 109.614 818.057 112.251V128.467C818.057 131.104 817.529 132.993 816.475 134.136C815.508 135.19 813.706 135.718 811.069 135.718H787.734V190.298C787.734 204.36 792.832 211.392 803.027 211.392C804.609 211.392 806.06 211.26 807.378 210.996C808.696 210.645 809.839 210.293 810.806 209.941C812.651 209.238 813.926 208.975 814.629 209.15C815.42 209.326 816.123 210.293 816.738 212.051L824.385 232.485C825.176 234.683 824.648 236.265 822.803 237.231C821.484 237.847 818.276 238.989 813.179 240.659C808.169 242.417 800.522 243.296 790.239 243.296ZM898.608 243.296C869.253 243.296 854.575 228.047 854.575 197.549V135.718H839.678C837.041 135.718 835.195 135.19 834.141 134.136C833.174 132.993 832.69 131.104 832.69 128.467V112.251C832.69 109.614 833.174 107.769 834.141 106.714C835.195 105.571 837.041 105 839.678 105H854.575V83.7744C854.575 81.665 855.015 80.0391 855.894 78.8965C859.585 74.0625 864.99 68.833 872.109 63.208C873.34 62.3291 874.438 61.8896 875.405 61.8896C876.46 61.8896 877.515 62.3291 878.569 63.208C882.349 66.1084 885.513 68.833 888.062 71.3818C890.698 73.9307 892.939 76.4355 894.785 78.8965C895.664 80.0391 896.104 81.665 896.104 83.7744V105H919.438C922.075 105 923.877 105.571 924.844 106.714C925.898 107.769 926.426 109.614 926.426 112.251V128.467C926.426 131.104 925.898 132.993 924.844 134.136C923.877 135.19 922.075 135.718 919.438 135.718H896.104V190.298C896.104 204.36 901.201 211.392 911.396 211.392C912.979 211.392 914.429 211.26 915.747 210.996C917.065 210.645 918.208 210.293 919.175 209.941C921.021 209.238 922.295 208.975 922.998 209.15C923.789 209.326 924.492 210.293 925.107 212.051L932.754 232.485C933.545 234.683 933.018 236.265 931.172 237.231C929.854 237.847 926.646 238.989 921.548 240.659C916.538 242.417 908.892 243.296 898.608 243.296ZM1017 243.296C994.849 243.296 977.314 237.407 964.395 225.63C951.475 213.853 945.015 196.318 945.015 173.027C945.015 149.121 951.694 131.279 965.054 119.502C978.501 107.637 996.431 101.704 1018.84 101.704C1040.46 101.704 1057.78 107.549 1070.79 119.238C1083.79 130.84 1090.3 147.979 1090.3 170.654C1090.3 194.297 1083.79 212.314 1070.79 224.707C1057.78 237.1 1039.85 243.296 1017 243.296ZM1018.32 211.392C1027.98 211.392 1035.28 208.403 1040.2 202.427C1045.12 196.362 1047.58 186.035 1047.58 171.445C1047.58 157.559 1045.08 147.803 1040.07 142.178C1035.15 136.465 1027.81 133.608 1018.05 133.608C1008.65 133.608 1001.22 136.685 995.771 142.837C990.41 148.901 987.729 158.789 987.729 172.5C987.729 186.826 990.278 196.89 995.376 202.69C1000.56 208.491 1008.21 211.392 1018.32 211.392Z" fill="#00ADB5"/>
</g>
<g filter="url(#filter1_d_616_1481)">
<path d="M267.452 41.9207L268.404 34.564" stroke="black" stroke-width="33" stroke-linecap="round"/>
<path d="M213.304 24.0746L215.535 17" stroke="black" stroke-width="33" stroke-linecap="round"/>
<path d="M118.692 69.4224C204.077 109.227 251.156 121.325 336.323 111.716" stroke="#00ADB5" stroke-width="33" stroke-linecap="round"/>
<path d="M143.807 180.548C189.097 118.903 252.419 68.9999 299.806 110.516C319.085 127.406 334.065 169.769 302.742 209.483C287.563 228.728 227.258 265.258 180.29 212.838" stroke="black" stroke-width="33" stroke-linecap="round"/>
<mask id="mask0_616_1481" style="mask-type:alpha" maskUnits="userSpaceOnUse" x="267" y="76" width="86" height="56">
<mask id="mask1_616_1481" style="mask-type:alpha" maskUnits="userSpaceOnUse" x="267" y="76" width="116" height="72">
<rect x="267.098" y="76.5488" width="114.903" height="70.4515" fill="#D9D9D9"/>
</mask>
<g mask="url(#mask1_616_1481)">
<path d="M118.693 69.4229C204.078 109.228 251.157 121.325 336.324 111.716" stroke="#00ADB5" stroke-width="33" stroke-linecap="round"/>
</g>
</mask>
<g mask="url(#mask0_616_1481)">
<path d="M143.807 180.548C189.097 118.903 252.419 69.0002 299.806 110.516C319.085 127.406 334.065 169.769 302.742 209.484C287.563 228.728 227.258 265.258 180.29 212.839" stroke="#00ADB5" stroke-width="33" stroke-linecap="round"/>
</g>
<mask id="mask2_616_1481" style="mask-type:alpha" maskUnits="userSpaceOnUse" x="143" y="66" width="104" height="66">
<mask id="mask3_616_1481" style="mask-type:alpha" maskUnits="userSpaceOnUse" x="143" y="66" width="104" height="75">
<rect x="160.306" y="82.9841" width="69.3224" height="40.8064" fill="#D9D9D9" stroke="black" stroke-width="33"/>
</mask>
<g mask="url(#mask3_616_1481)">
<path d="M118.692 69.4229C204.077 109.228 251.156 121.325 336.323 111.716" stroke="black" stroke-width="33" stroke-linecap="round"/>
</g>
</mask>
<g mask="url(#mask2_616_1481)">
<path d="M143.806 180.549C189.096 118.904 252.418 69.0004 299.805 110.516C319.084 127.406 334.064 169.769 302.741 209.484C287.562 228.729 227.257 265.258 180.289 212.839" stroke="black" stroke-width="33" stroke-linecap="round"/>
</g>
<mask id="mask4_616_1481" style="mask-type:alpha" maskUnits="userSpaceOnUse" x="123" y="76" width="90" height="120">
<mask id="mask5_616_1481" style="mask-type:alpha" maskUnits="userSpaceOnUse" x="123" y="76" width="90" height="120">
<rect x="140.177" y="93.0486" width="55.9031" height="86.0966" fill="#D9D9D9" stroke="#00ADB5" stroke-width="33"/>
</mask>
<g mask="url(#mask5_616_1481)">
<path d="M175.471 205.849C138.567 146.301 101.868 87.1714 63.2875 100.171C24.7072 113.171 17.9992 192.011 17.999 205.849C17.9989 219.687 27.6442 235.623 50.7071 235.623C147.66 235.623 211.319 61.7422 203.352 58.2362C195.384 54.7303 139.612 207.945 192.45 219.687C245.289 231.429 272.337 79.343 261.957 79.343C251.578 79.343 271.81 217.871 279.255 227.236" stroke="#00ADB5" stroke-width="33" stroke-linecap="round"/>
</g>
</mask>
<g mask="url(#mask4_616_1481)">
<path d="M143.806 180.548C189.096 118.903 252.418 69.0002 299.805 110.516C319.084 127.406 334.064 169.769 302.741 209.484C287.562 228.728 227.257 265.258 180.289 212.839" stroke="black" stroke-width="33" stroke-linecap="round"/>
</g>
<path d="M175.472 205.848C138.568 146.3 101.869 87.171 63.2885 100.171C24.7081 113.171 18.0001 192.01 18 205.848C17.9999 219.687 27.6451 235.623 50.708 235.623C147.661 235.623 211.32 61.7417 203.353 58.2358C195.385 54.7298 139.613 207.945 192.451 219.687C245.29 231.429 272.338 79.3425 261.958 79.3425C251.579 79.3425 271.811 217.87 279.256 227.235" stroke="url(#paint0_linear_616_1481)" stroke-width="33" stroke-linecap="round"/>
</g>
<defs>
<filter id="filter0_i_616_1481" x="378.911" y="50.9473" width="711.387" height="198.349" filterUnits="userSpaceOnUse" color-interpolation-filters="sRGB">
<feFlood flood-opacity="0" result="BackgroundImageFix"/>
<feBlend mode="normal" in="SourceGraphic" in2="BackgroundImageFix" result="shape"/>
<feColorMatrix in="SourceAlpha" type="matrix" values="0 0 0 0 0 0 0 0 0 0 0 0 0 0 0 0 0 0 127 0" result="hardAlpha"/>
<feOffset dy="8"/>
<feGaussianBlur stdDeviation="3"/>
<feComposite in2="hardAlpha" operator="arithmetic" k2="-1" k3="1"/>
<feColorMatrix type="matrix" values="0 0 0 0 0 0 0 0 0 0 0 0 0 0 0 0 0 0 0.25 0"/>
<feBlend mode="normal" in2="shape" result="effect1_innerShadow_616_1481"/>
</filter>
<filter id="filter1_d_616_1481" x="0.5" y="0.495605" width="359.325" height="266.889" filterUnits="userSpaceOnUse" color-interpolation-filters="sRGB">
<feFlood flood-opacity="0" result="BackgroundImageFix"/>
<feColorMatrix in="SourceAlpha" type="matrix" values="0 0 0 0 0 0 0 0 0 0 0 0 0 0 0 0 0 0 127 0" result="hardAlpha"/>
<feOffset dx="3" dy="7"/>
<feGaussianBlur stdDeviation="2"/>
<feComposite in2="hardAlpha" operator="out"/>
<feColorMatrix type="matrix" values="0 0 0 0 0 0 0 0 0 0 0 0 0 0 0 0 0 0 0.25 0"/>
<feBlend mode="normal" in2="BackgroundImageFix" result="effect1_dropShadow_616_1481"/>
<feBlend mode="normal" in="SourceGraphic" in2="effect1_dropShadow_616_1481" result="shape"/>
</filter>
<linearGradient id="paint0_linear_616_1481" x1="197.903" y1="98.3547" x2="18" y2="235.903" gradientUnits="userSpaceOnUse">
<stop offset="0.134925" stop-color="#00ADB5"/>
<stop offset="0.44"/>
<stop offset="1"/>
</linearGradient>
</defs>
</svg>
