<svg width="1078" height="268" viewBox="0 0 1078 268" fill="none" xmlns="http://www.w3.org/2000/svg">
<g filter="url(#filter0_i_616_1481)">
<path d="M469.026 61.3623C473.86 68.1299 478.782 76.875 483.792 87.5977C488.89 98.2324 493.812 109.922 498.558 122.666C503.304 135.41 507.566 148.462 511.346 161.821C515.213 175.093 518.377 187.881 520.838 200.186C523.299 212.49 524.705 223.433 525.057 233.013C525.145 237.671 523.035 240 518.729 240H486.824C482.693 240 480.54 237.935 480.364 233.804C480.013 223.96 478.431 212.007 475.618 197.944H403.636C401.175 211.655 399.769 223.608 399.417 233.804C399.241 237.935 397 240 392.693 240H361.448C359.866 240 358.548 239.561 357.493 238.682C356.438 237.715 355.955 236.089 356.043 233.804C356.482 224.048 357.889 212.974 360.262 200.581C362.723 188.101 365.887 175.181 369.754 161.821C373.621 148.462 377.928 135.41 382.674 122.666C387.42 109.834 392.342 98.1006 397.439 87.4658C402.537 76.8311 407.503 68.1299 412.337 61.3623C414.886 57.7588 417.566 55.1221 420.379 53.4521C423.279 51.7822 426.839 50.9473 431.058 50.9473H450.042C454.349 50.9473 457.952 51.7822 460.853 53.4521C463.753 55.1221 466.478 57.7588 469.026 61.3623ZM439.231 92.6074C433.431 101.836 428.113 112.866 423.279 125.698C418.445 138.53 414.271 151.714 410.755 165.249H467.972C464.28 151.714 460.018 138.53 455.184 125.698C450.35 112.866 445.296 101.836 440.022 92.6074H439.231ZM597.171 243.296C565.882 243.296 550.237 224.355 550.237 186.475L550.105 119.502C550.105 117.393 550.545 115.767 551.424 114.624C555.115 109.79 560.521 104.561 567.64 98.9355C568.87 98.0566 569.969 97.6172 570.936 97.6172C572.078 97.6172 573.177 98.0566 574.231 98.9355C578.011 101.836 581.175 104.561 583.724 107.109C586.36 109.658 588.602 112.163 590.447 114.624C591.326 115.767 591.766 117.393 591.766 119.502V182.783C591.766 201.855 599.324 211.392 614.441 211.392C621.912 211.392 627.889 208.799 632.371 203.613C636.854 198.34 639.095 191.221 639.095 182.256V119.502C639.095 117.393 639.534 115.767 640.413 114.624C644.104 109.79 649.51 104.561 656.629 98.9355C657.859 98.0566 658.958 97.6172 659.925 97.6172C661.067 97.6172 662.166 98.0566 663.221 98.9355C667 101.836 670.164 104.561 672.713 107.109C675.35 109.658 677.591 112.163 679.437 114.624C680.315 115.767 680.755 117.393 680.755 119.502V233.936C680.755 235.605 680.184 237.056 679.041 238.286C677.898 239.429 676.448 240 674.69 240H654.915C653.509 240 652.234 239.824 651.092 239.473C650.037 239.033 649.026 238.242 648.06 237.1L639.886 226.553H638.963C637.557 228.574 635.359 230.903 632.371 233.54C629.471 236.177 625.208 238.462 619.583 240.396C614.046 242.329 606.575 243.296 597.171 243.296ZM767.239 243.296C737.884 243.296 723.206 228.047 723.206 197.549V135.718H708.309C705.672 135.718 703.826 135.19 702.771 134.136C701.805 132.993 701.321 131.104 701.321 128.467V112.251C701.321 109.614 701.805 107.769 702.771 106.714C703.826 105.571 705.672 105 708.309 105H723.206V83.7744C723.206 81.665 723.646 80.0391 724.524 78.8965C728.216 74.0625 733.621 68.833 740.74 63.208C741.971 62.3291 743.069 61.8896 744.036 61.8896C745.091 61.8896 746.146 62.3291 747.2 63.208C750.979 66.1084 754.144 68.833 756.692 71.3818C759.329 73.9307 761.57 76.4355 763.416 78.8965C764.295 80.0391 764.734 81.665 764.734 83.7744V105H788.069C790.706 105 792.508 105.571 793.475 106.714C794.529 107.769 795.057 109.614 795.057 112.251V128.467C795.057 131.104 794.529 132.993 793.475 134.136C792.508 135.19 790.706 135.718 788.069 135.718H764.734V190.298C764.734 204.36 769.832 211.392 780.027 211.392C781.609 211.392 783.06 211.26 784.378 210.996C785.696 210.645 786.839 210.293 787.806 209.941C789.651 209.238 790.926 208.975 791.629 209.15C792.42 209.326 793.123 210.293 793.738 212.051L801.385 232.485C802.176 234.683 801.648 236.265 799.803 237.231C798.484 237.847 795.276 238.989 790.179 240.659C785.169 242.417 777.522 243.296 767.239 243.296ZM875.608 243.296C846.253 243.296 831.575 228.047 831.575 197.549V135.718H816.678C814.041 135.718 812.195 135.19 811.141 134.136C810.174 132.993 809.69 131.104 809.69 128.467V112.251C809.69 109.614 810.174 107.769 811.141 106.714C812.195 105.571 814.041 105 816.678 105H831.575V83.7744C831.575 81.665 832.015 80.0391 832.894 78.8965C836.585 74.0625 841.99 68.833 849.109 63.208C850.34 62.3291 851.438 61.8896 852.405 61.8896C853.46 61.8896 854.515 62.3291 855.569 63.208C859.349 66.1084 862.513 68.833 865.062 71.3818C867.698 73.9307 869.939 76.4355 871.785 78.8965C872.664 80.0391 873.104 81.665 873.104 83.7744V105H896.438C899.075 105 900.877 105.571 901.844 106.714C902.898 107.769 903.426 109.614 903.426 112.251V128.467C903.426 131.104 902.898 132.993 901.844 134.136C900.877 135.19 899.075 135.718 896.438 135.718H873.104V190.298C873.104 204.36 878.201 211.392 888.396 211.392C889.979 211.392 891.429 211.26 892.747 210.996C894.065 210.645 895.208 210.293 896.175 209.941C898.021 209.238 899.295 208.975 899.998 209.15C900.789 209.326 901.492 210.293 902.107 212.051L909.754 232.485C910.545 234.683 910.018 236.265 908.172 237.231C906.854 237.847 903.646 238.989 898.548 240.659C893.538 242.417 885.892 243.296 875.608 243.296ZM993.997 243.296C971.849 243.296 954.314 237.407 941.395 225.63C928.475 213.853 922.015 196.318 922.015 173.027C922.015 149.121 928.694 131.279 942.054 119.502C955.501 107.637 973.431 101.704 995.843 101.704C1017.46 101.704 1034.78 107.549 1047.79 119.238C1060.79 130.84 1067.3 147.979 1067.3 170.654C1067.3 194.297 1060.79 212.314 1047.79 224.707C1034.78 237.1 1016.85 243.296 993.997 243.296ZM995.315 211.392C1004.98 211.392 1012.28 208.403 1017.2 202.427C1022.12 196.362 1024.58 186.035 1024.58 171.445C1024.58 157.559 1022.08 147.803 1017.07 142.178C1012.15 136.465 1004.81 133.608 995.052 133.608C985.647 133.608 978.221 136.685 972.771 142.837C967.41 148.901 964.729 158.789 964.729 172.5C964.729 186.826 967.278 196.89 972.376 202.69C977.562 208.491 985.208 211.392 995.315 211.392Z" fill="#00ADB5"/>
</g>
<g filter="url(#filter1_d_616_1481)">
<path d="M267.452 41.9207L268.404 34.564" stroke="black" stroke-width="33" stroke-linecap="round"/>
<path d="M213.304 24.0746L215.535 17" stroke="black" stroke-width="33" stroke-linecap="round"/>
<path d="M118.692 69.4224C204.077 109.227 251.156 121.325 336.323 111.716" stroke="#00ADB5" stroke-width="33" stroke-linecap="round"/>
<path d="M143.807 180.548C189.097 118.903 252.419 68.9999 299.806 110.516C319.085 127.406 334.065 169.769 302.742 209.483C287.563 228.728 227.258 265.258 180.29 212.838" stroke="black" stroke-width="33" stroke-linecap="round"/>
<mask id="mask0_616_1481" style="mask-type:alpha" maskUnits="userSpaceOnUse" x="267" y="76" width="86" height="56">
<mask id="mask1_616_1481" style="mask-type:alpha" maskUnits="userSpaceOnUse" x="267" y="76" width="116" height="72">
<rect x="267.098" y="76.5488" width="114.903" height="70.4515" fill="#D9D9D9"/>
</mask>
<g mask="url(#mask1_616_1481)">
<path d="M118.693 69.4229C204.078 109.228 251.157 121.325 336.324 111.716" stroke="#00ADB5" stroke-width="33" stroke-linecap="round"/>
</g>
</mask>
<g mask="url(#mask0_616_1481)">
<path d="M143.807 180.548C189.097 118.903 252.419 69.0002 299.806 110.516C319.085 127.406 334.065 169.769 302.742 209.484C287.563 228.728 227.258 265.258 180.29 212.839" stroke="#00ADB5" stroke-width="33" stroke-linecap="round"/>
</g>
<mask id="mask2_616_1481" style="mask-type:alpha" maskUnits="userSpaceOnUse" x="143" y="66" width="104" height="66">
<mask id="mask3_616_1481" style="mask-type:alpha" maskUnits="userSpaceOnUse" x="143" y="66" width="104" height="75">
<rect x="160.306" y="82.9841" width="69.3224" height="40.8064" fill="#D9D9D9" stroke="black" stroke-width="33"/>
</mask>
<g mask="url(#mask3_616_1481)">
<path d="M118.692 69.4229C204.077 109.228 251.156 121.325 336.323 111.716" stroke="black" stroke-width="33" stroke-linecap="round"/>
</g>
</mask>
<g mask="url(#mask2_616_1481)">
<path d="M143.806 180.549C189.096 118.904 252.418 69.0004 299.805 110.516C319.084 127.406 334.064 169.769 302.741 209.484C287.562 228.729 227.257 265.258 180.289 212.839" stroke="black" stroke-width="33" stroke-linecap="round"/>
</g>
<mask id="mask4_616_1481" style="mask-type:alpha" maskUnits="userSpaceOnUse" x="123" y="76" width="90" height="120">
<mask id="mask5_616_1481" style="mask-type:alpha" maskUnits="userSpaceOnUse" x="123" y="76" width="90" height="120">
<rect x="140.177" y="93.0486" width="55.9031" height="86.0966" fill="#D9D9D9" stroke="#00ADB5" stroke-width="33"/>
</mask>
<g mask="url(#mask5_616_1481)">
<path d="M175.471 205.849C138.567 146.301 101.868 87.1714 63.2875 100.171C24.7072 113.171 17.9992 192.011 17.999 205.849C17.9989 219.687 27.6442 235.623 50.7071 235.623C147.66 235.623 211.319 61.7422 203.352 58.2362C195.384 54.7303 139.612 207.945 192.45 219.687C245.289 231.429 272.337 79.343 261.957 79.343C251.578 79.343 271.81 217.871 279.255 227.236" stroke="#00ADB5" stroke-width="33" stroke-linecap="round"/>
</g>
</mask>
<g mask="url(#mask4_616_1481)">
<path d="M143.806 180.548C189.096 118.903 252.418 69.0002 299.805 110.516C319.084 127.406 334.064 169.769 302.741 209.484C287.562 228.728 227.257 265.258 180.289 212.839" stroke="black" stroke-width="33" stroke-linecap="round"/>
</g>
<path d="M175.472 205.848C138.568 146.3 101.869 87.171 63.2885 100.171C24.7081 113.171 18.0001 192.01 18 205.848C17.9999 219.687 27.6451 235.623 50.708 235.623C147.661 235.623 211.32 61.7417 203.353 58.2358C195.385 54.7298 139.613 207.945 192.451 219.687C245.29 231.429 272.338 79.3425 261.958 79.3425C251.579 79.3425 271.811 217.87 279.256 227.235" stroke="url(#paint0_linear_616_1481)" stroke-width="33" stroke-linecap="round"/>
</g>
<defs>
<filter id="filter0_i_616_1481" x="355.911" y="50.9473" width="711.387" height="198.349" filterUnits="userSpaceOnUse" color-interpolation-filters="sRGB">
<feFlood flood-opacity="0" result="BackgroundImageFix"/>
<feBlend mode="normal" in="SourceGraphic" in2="BackgroundImageFix" result="shape"/>
<feColorMatrix in="SourceAlpha" type="matrix" values="0 0 0 0 0 0 0 0 0 0 0 0 0 0 0 0 0 0 127 0" result="hardAlpha"/>
<feOffset dy="8"/>
<feGaussianBlur stdDeviation="3"/>
<feComposite in2="hardAlpha" operator="arithmetic" k2="-1" k3="1"/>
<feColorMatrix type="matrix" values="0 0 0 0 0 0 0 0 0 0 0 0 0 0 0 0 0 0 0.25 0"/>
<feBlend mode="normal" in2="shape" result="effect1_innerShadow_616_1481"/>
</filter>
<filter id="filter1_d_616_1481" x="0.5" y="0.495605" width="359.325" height="266.889" filterUnits="userSpaceOnUse" color-interpolation-filters="sRGB">
<feFlood flood-opacity="0" result="BackgroundImageFix"/>
<feColorMatrix in="SourceAlpha" type="matrix" values="0 0 0 0 0 0 0 0 0 0 0 0 0 0 0 0 0 0 127 0" result="hardAlpha"/>
<feOffset dx="3" dy="7"/>
<feGaussianBlur stdDeviation="2"/>
<feComposite in2="hardAlpha" operator="out"/>
<feColorMatrix type="matrix" values="0 0 0 0 0 0 0 0 0 0 0 0 0 0 0 0 0 0 0.25 0"/>
<feBlend mode="normal" in2="BackgroundImageFix" result="effect1_dropShadow_616_1481"/>
<feBlend mode="normal" in="SourceGraphic" in2="effect1_dropShadow_616_1481" result="shape"/>
</filter>
<linearGradient id="paint0_linear_616_1481" x1="197.903" y1="98.3547" x2="18" y2="235.903" gradientUnits="userSpaceOnUse">
<stop offset="0.134925" stop-color="#00ADB5"/>
<stop offset="0.44"/>
<stop offset="1"/>
</linearGradient>
</defs>
</svg>
