<svg width="512" height="512" viewBox="0 0 512 512" fill="none" xmlns="http://www.w3.org/2000/svg">
<rect width="512" height="512" rx="120" fill="black"/>
<g filter="url(#filter0_d_616_1576)">
<path d="M368.425 152.713L369.56 143.941" stroke="white" stroke-width="35" stroke-linecap="round"/>
<path d="M303.862 131.435L306.522 123" stroke="white" stroke-width="35" stroke-linecap="round"/>
<path d="M191.057 185.504C292.862 232.963 348.995 247.388 450.541 235.931" stroke="#00ADB5" stroke-width="35" stroke-linecap="round"/>
<path d="M221 318C275 244.5 350.5 185 407 234.5C429.986 254.638 447.847 305.148 410.5 352.5C392.402 375.446 320.5 419 264.5 356.5" stroke="white" stroke-width="35" stroke-linecap="round"/>
<mask id="mask0_616_1576" style="mask-type:alpha" maskUnits="userSpaceOnUse" x="368" y="194" width="101" height="64">
<mask id="mask1_616_1576" style="mask-type:alpha" maskUnits="userSpaceOnUse" x="368" y="194" width="137" height="84">
<rect x="368" y="194" width="137" height="84" fill="#D9D9D9"/>
</mask>
<g mask="url(#mask1_616_1576)">
<path d="M191.057 185.504C292.862 232.963 348.995 247.388 450.541 235.931" stroke="#00ADB5" stroke-width="35" stroke-linecap="round"/>
</g>
</mask>
<g mask="url(#mask0_616_1576)">
<path d="M221 318C275 244.5 350.5 185 407 234.5C429.986 254.638 447.847 305.148 410.5 352.5C392.402 375.446 320.5 419 264.5 356.5" stroke="#00ADB5" stroke-width="35" stroke-linecap="round"/>
</g>
<mask id="mask2_616_1576" style="mask-type:alpha" maskUnits="userSpaceOnUse" x="221" y="182" width="122" height="76">
<mask id="mask3_616_1576" style="mask-type:alpha" maskUnits="userSpaceOnUse" x="221" y="182" width="122" height="88">
<rect x="221.5" y="182.5" width="121" height="87" fill="#D9D9D9" stroke="black"/>
</mask>
<g mask="url(#mask3_616_1576)">
<path d="M191.057 185.504C292.862 232.963 348.995 247.388 450.541 235.931" stroke="black" stroke-width="35" stroke-linecap="round"/>
</g>
</mask>
<g mask="url(#mask2_616_1576)">
<path d="M221 318C275 244.5 350.5 185 407 234.5C429.986 254.638 447.847 305.148 410.5 352.5C392.402 375.446 320.5 419 264.5 356.5" stroke="white" stroke-width="35" stroke-linecap="round"/>
</g>
<mask id="mask4_616_1576" style="mask-type:alpha" maskUnits="userSpaceOnUse" x="197" y="194" width="106" height="142">
<mask id="mask5_616_1576" style="mask-type:alpha" maskUnits="userSpaceOnUse" x="197" y="194" width="106" height="142">
<rect x="197.5" y="194.5" width="105" height="141" fill="#D9D9D9" stroke="#00ADB5"/>
</mask>
<g mask="url(#mask5_616_1576)">
<path d="M258.755 348.166C214.755 277.166 170.998 206.666 124.998 222.166C78.9982 237.666 71.0002 331.666 71 348.166C70.9998 364.665 82.5 383.666 109.998 383.666C225.596 383.666 301.498 176.346 291.998 172.166C282.498 167.986 216 350.665 279 364.665C342 378.666 374.25 197.332 361.874 197.332C349.498 197.332 373.621 362.499 382.498 373.666" stroke="#00ADB5" stroke-width="35" stroke-linecap="round"/>
</g>
</mask>
<g mask="url(#mask4_616_1576)">
<path d="M221 318C275 244.5 350.5 185 407 234.5C429.986 254.638 447.847 305.148 410.5 352.5C392.402 375.446 320.5 419 264.5 356.5" stroke="white" stroke-width="35" stroke-linecap="round"/>
</g>
<path d="M258.755 348.166C214.755 277.166 170.998 206.666 124.998 222.166C78.9982 237.666 71.0002 331.666 71 348.166C70.9998 364.665 82.5 383.666 109.998 383.666C225.596 383.666 301.498 176.346 291.998 172.166C282.498 167.986 216 350.665 279 364.665C342 378.666 374.25 197.332 361.874 197.332C349.498 197.332 373.621 362.499 382.498 373.666" stroke="url(#paint0_linear_616_1576)" stroke-width="35" stroke-linecap="round"/>
</g>
<defs>
<filter id="filter0_d_616_1576" x="52.5" y="105.495" width="422.542" height="311.753" filterUnits="userSpaceOnUse" color-interpolation-filters="sRGB">
<feFlood flood-opacity="0" result="BackgroundImageFix"/>
<feColorMatrix in="SourceAlpha" type="matrix" values="0 0 0 0 0 0 0 0 0 0 0 0 0 0 0 0 0 0 127 0" result="hardAlpha"/>
<feOffset dx="3" dy="7"/>
<feGaussianBlur stdDeviation="2"/>
<feComposite in2="hardAlpha" operator="out"/>
<feColorMatrix type="matrix" values="0 0 0 0 0 0 0 0 0 0 0 0 0 0 0 0 0 0 0.25 0"/>
<feBlend mode="normal" in2="BackgroundImageFix" result="effect1_dropShadow_616_1576"/>
<feBlend mode="normal" in="SourceGraphic" in2="effect1_dropShadow_616_1576" result="shape"/>
</filter>
<linearGradient id="paint0_linear_616_1576" x1="285.5" y1="220" x2="71" y2="384" gradientUnits="userSpaceOnUse">
<stop offset="0.134925" stop-color="#00ADB5"/>
<stop offset="0.44" stop-color="white"/>
<stop offset="1" stop-color="white"/>
</linearGradient>
</defs>
</svg>
