<svg width="249" height="85" viewBox="0 0 249 85" fill="none" xmlns="http://www.w3.org/2000/svg">
<mask id="path-1-outside-1_340_866" maskUnits="userSpaceOnUse" x="83" y="31" width="151" height="32" fill="black">
<rect fill="white" x="83" y="31" width="151" height="32"/>
<path d="M85.5527 61L101.593 33H109.433L114.913 61H107.553L104.313 40.24H104.233L93.6327 61H85.5527ZM94.1927 56.12L95.3127 50.56H109.273L108.153 56.12H94.1927ZM122.529 61.32C121.115 61.32 119.915 61.0267 118.929 60.44C117.942 59.8267 117.235 58.9733 116.809 57.88C116.409 56.7867 116.342 55.5467 116.609 54.16L119.329 40.36H126.169L123.849 52.32C123.689 53.2533 123.795 53.9733 124.169 54.48C124.542 54.96 125.222 55.2 126.209 55.2C126.582 55.2 126.955 55.16 127.329 55.08C127.702 55 128.089 54.8933 128.489 54.76L129.649 54.28L132.369 40.36H139.209L135.169 61H130.129L130.009 57.36L131.249 58.24L128.809 59.52C127.662 60.1333 126.569 60.5867 125.529 60.88C124.489 61.1733 123.489 61.32 122.529 61.32ZM144.674 51.76C144.621 51.3867 144.581 50.9733 144.554 50.52C144.554 50.0667 144.594 49.6533 144.674 49.28C144.914 48.16 145.407 47.2133 146.154 46.44C146.901 45.64 147.874 44.9867 149.074 44.48L152.394 43.04C153.194 42.6933 153.754 42.36 154.074 42.04C154.421 41.6933 154.634 41.24 154.714 40.68C154.821 40.2 154.727 39.7867 154.434 39.44C154.141 39.0933 153.634 38.8133 152.914 38.6C152.194 38.3867 151.234 38.28 150.034 38.28C149.314 38.28 148.514 38.3067 147.634 38.36C146.781 38.4133 145.807 38.52 144.714 38.68L142.474 38.92L141.954 34.28L143.594 33.84C144.927 33.4667 146.327 33.1733 147.794 32.96C149.261 32.72 150.727 32.6 152.194 32.6C154.461 32.6 156.354 32.96 157.874 33.68C159.394 34.4 160.487 35.3867 161.154 36.64C161.821 37.8667 161.994 39.2667 161.674 40.84C161.434 42.1467 161.021 43.2267 160.434 44.08C159.847 44.9067 159.087 45.6133 158.154 46.2C157.221 46.76 156.087 47.32 154.754 47.88L151.754 49.08C151.194 49.2933 150.767 49.5467 150.474 49.84C150.207 50.1067 150.034 50.48 149.954 50.96L149.834 51.76H144.674ZM145.274 61.32C144.074 61.32 143.154 60.9467 142.514 60.2C141.874 59.4267 141.661 58.4667 141.874 57.32C142.087 56.2 142.647 55.32 143.554 54.68C144.461 54.04 145.527 53.72 146.754 53.72C147.954 53.72 148.874 54.1067 149.514 54.88C150.181 55.6533 150.407 56.5867 150.194 57.68C149.954 58.8267 149.381 59.72 148.474 60.36C147.567 61 146.501 61.32 145.274 61.32ZM169.832 61.32C167.752 61.32 166.166 60.7867 165.072 59.72C163.979 58.6533 163.659 56.96 164.112 54.64L165.872 45.88H161.592L162.432 41.48L166.912 40.36L167.832 35.72L174.992 34.08L173.792 40.36H179.832L178.752 45.88H172.672L171.232 53.4C171.099 54.0133 171.179 54.5067 171.472 54.88C171.766 55.2533 172.352 55.44 173.232 55.44C173.686 55.44 174.086 55.4267 174.432 55.4C174.806 55.3733 175.166 55.3467 175.512 55.32L176.432 55.2L176.392 60.12L175.392 60.44C174.379 60.7333 173.406 60.9467 172.472 61.08C171.566 61.24 170.686 61.32 169.832 61.32ZM187.343 61.32C185.263 61.32 183.677 60.7867 182.583 59.72C181.49 58.6533 181.17 56.96 181.623 54.64L183.383 45.88H179.103L179.943 41.48L184.423 40.36L185.343 35.72L192.503 34.08L191.303 40.36H197.343L196.263 45.88H190.183L188.743 53.4C188.61 54.0133 188.69 54.5067 188.983 54.88C189.277 55.2533 189.863 55.44 190.743 55.44C191.197 55.44 191.597 55.4267 191.943 55.4C192.317 55.3733 192.677 55.3467 193.023 55.32L193.943 55.2L193.903 60.12L192.903 60.44C191.89 60.7333 190.917 60.9467 189.983 61.08C189.077 61.24 188.197 61.32 187.343 61.32ZM205.705 61.32C203.412 61.32 201.479 60.8133 199.905 59.8C198.359 58.7867 197.252 57.4133 196.585 55.68C195.945 53.9467 195.839 52.0133 196.265 49.88C196.639 47.9867 197.332 46.2933 198.345 44.8C199.359 43.3067 200.719 42.1333 202.425 41.28C204.159 40.4267 206.279 40 208.785 40C210.572 40 212.105 40.3067 213.385 40.92C214.692 41.5333 215.732 42.3733 216.505 43.44C217.305 44.5067 217.825 45.7333 218.065 47.12C218.332 48.48 218.319 49.92 218.025 51.44C217.625 53.4933 216.892 55.2667 215.825 56.76C214.759 58.2267 213.372 59.36 211.665 60.16C209.985 60.9333 207.999 61.32 205.705 61.32ZM206.225 55.56C207.532 55.56 208.599 55.24 209.425 54.6C210.279 53.9333 210.852 52.7733 211.145 51.12C211.385 50.0267 211.412 49.08 211.225 48.28C211.065 47.48 210.705 46.8667 210.145 46.44C209.612 45.9867 208.879 45.76 207.945 45.76C206.585 45.76 205.505 46.1067 204.705 46.8C203.905 47.4933 203.359 48.6533 203.065 50.28C202.825 51.5067 202.812 52.52 203.025 53.32C203.239 54.0933 203.625 54.6667 204.185 55.04C204.745 55.3867 205.425 55.56 206.225 55.56ZM222.069 51.6L222.989 40.24L224.389 33H231.789L230.389 40.24L226.869 51.6H222.069ZM222.629 61.32C221.429 61.32 220.496 60.96 219.829 60.24C219.189 59.4933 218.976 58.5467 219.189 57.4C219.403 56.28 219.949 55.3867 220.829 54.72C221.736 54.0533 222.803 53.72 224.029 53.72C225.229 53.72 226.163 54.0933 226.829 54.84C227.496 55.56 227.709 56.48 227.469 57.6C227.256 58.7467 226.696 59.6533 225.789 60.32C224.909 60.9867 223.856 61.32 222.629 61.32Z"/>
</mask>
<path d="M85.5527 61L101.593 33H109.433L114.913 61H107.553L104.313 40.24H104.233L93.6327 61H85.5527ZM94.1927 56.12L95.3127 50.56H109.273L108.153 56.12H94.1927ZM122.529 61.32C121.115 61.32 119.915 61.0267 118.929 60.44C117.942 59.8267 117.235 58.9733 116.809 57.88C116.409 56.7867 116.342 55.5467 116.609 54.16L119.329 40.36H126.169L123.849 52.32C123.689 53.2533 123.795 53.9733 124.169 54.48C124.542 54.96 125.222 55.2 126.209 55.2C126.582 55.2 126.955 55.16 127.329 55.08C127.702 55 128.089 54.8933 128.489 54.76L129.649 54.28L132.369 40.36H139.209L135.169 61H130.129L130.009 57.36L131.249 58.24L128.809 59.52C127.662 60.1333 126.569 60.5867 125.529 60.88C124.489 61.1733 123.489 61.32 122.529 61.32ZM144.674 51.76C144.621 51.3867 144.581 50.9733 144.554 50.52C144.554 50.0667 144.594 49.6533 144.674 49.28C144.914 48.16 145.407 47.2133 146.154 46.44C146.901 45.64 147.874 44.9867 149.074 44.48L152.394 43.04C153.194 42.6933 153.754 42.36 154.074 42.04C154.421 41.6933 154.634 41.24 154.714 40.68C154.821 40.2 154.727 39.7867 154.434 39.44C154.141 39.0933 153.634 38.8133 152.914 38.6C152.194 38.3867 151.234 38.28 150.034 38.28C149.314 38.28 148.514 38.3067 147.634 38.36C146.781 38.4133 145.807 38.52 144.714 38.68L142.474 38.92L141.954 34.28L143.594 33.84C144.927 33.4667 146.327 33.1733 147.794 32.96C149.261 32.72 150.727 32.6 152.194 32.6C154.461 32.6 156.354 32.96 157.874 33.68C159.394 34.4 160.487 35.3867 161.154 36.64C161.821 37.8667 161.994 39.2667 161.674 40.84C161.434 42.1467 161.021 43.2267 160.434 44.08C159.847 44.9067 159.087 45.6133 158.154 46.2C157.221 46.76 156.087 47.32 154.754 47.88L151.754 49.08C151.194 49.2933 150.767 49.5467 150.474 49.84C150.207 50.1067 150.034 50.48 149.954 50.96L149.834 51.76H144.674ZM145.274 61.32C144.074 61.32 143.154 60.9467 142.514 60.2C141.874 59.4267 141.661 58.4667 141.874 57.32C142.087 56.2 142.647 55.32 143.554 54.68C144.461 54.04 145.527 53.72 146.754 53.72C147.954 53.72 148.874 54.1067 149.514 54.88C150.181 55.6533 150.407 56.5867 150.194 57.68C149.954 58.8267 149.381 59.72 148.474 60.36C147.567 61 146.501 61.32 145.274 61.32ZM169.832 61.32C167.752 61.32 166.166 60.7867 165.072 59.72C163.979 58.6533 163.659 56.96 164.112 54.64L165.872 45.88H161.592L162.432 41.48L166.912 40.36L167.832 35.72L174.992 34.08L173.792 40.36H179.832L178.752 45.88H172.672L171.232 53.4C171.099 54.0133 171.179 54.5067 171.472 54.88C171.766 55.2533 172.352 55.44 173.232 55.44C173.686 55.44 174.086 55.4267 174.432 55.4C174.806 55.3733 175.166 55.3467 175.512 55.32L176.432 55.2L176.392 60.12L175.392 60.44C174.379 60.7333 173.406 60.9467 172.472 61.08C171.566 61.24 170.686 61.32 169.832 61.32ZM187.343 61.32C185.263 61.32 183.677 60.7867 182.583 59.72C181.49 58.6533 181.17 56.96 181.623 54.64L183.383 45.88H179.103L179.943 41.48L184.423 40.36L185.343 35.72L192.503 34.08L191.303 40.36H197.343L196.263 45.88H190.183L188.743 53.4C188.61 54.0133 188.69 54.5067 188.983 54.88C189.277 55.2533 189.863 55.44 190.743 55.44C191.197 55.44 191.597 55.4267 191.943 55.4C192.317 55.3733 192.677 55.3467 193.023 55.32L193.943 55.2L193.903 60.12L192.903 60.44C191.89 60.7333 190.917 60.9467 189.983 61.08C189.077 61.24 188.197 61.32 187.343 61.32ZM205.705 61.32C203.412 61.32 201.479 60.8133 199.905 59.8C198.359 58.7867 197.252 57.4133 196.585 55.68C195.945 53.9467 195.839 52.0133 196.265 49.88C196.639 47.9867 197.332 46.2933 198.345 44.8C199.359 43.3067 200.719 42.1333 202.425 41.28C204.159 40.4267 206.279 40 208.785 40C210.572 40 212.105 40.3067 213.385 40.92C214.692 41.5333 215.732 42.3733 216.505 43.44C217.305 44.5067 217.825 45.7333 218.065 47.12C218.332 48.48 218.319 49.92 218.025 51.44C217.625 53.4933 216.892 55.2667 215.825 56.76C214.759 58.2267 213.372 59.36 211.665 60.16C209.985 60.9333 207.999 61.32 205.705 61.32ZM206.225 55.56C207.532 55.56 208.599 55.24 209.425 54.6C210.279 53.9333 210.852 52.7733 211.145 51.12C211.385 50.0267 211.412 49.08 211.225 48.28C211.065 47.48 210.705 46.8667 210.145 46.44C209.612 45.9867 208.879 45.76 207.945 45.76C206.585 45.76 205.505 46.1067 204.705 46.8C203.905 47.4933 203.359 48.6533 203.065 50.28C202.825 51.5067 202.812 52.52 203.025 53.32C203.239 54.0933 203.625 54.6667 204.185 55.04C204.745 55.3867 205.425 55.56 206.225 55.56ZM222.069 51.6L222.989 40.24L224.389 33H231.789L230.389 40.24L226.869 51.6H222.069ZM222.629 61.32C221.429 61.32 220.496 60.96 219.829 60.24C219.189 59.4933 218.976 58.5467 219.189 57.4C219.403 56.28 219.949 55.3867 220.829 54.72C221.736 54.0533 222.803 53.72 224.029 53.72C225.229 53.72 226.163 54.0933 226.829 54.84C227.496 55.56 227.709 56.48 227.469 57.6C227.256 58.7467 226.696 59.6533 225.789 60.32C224.909 60.9867 223.856 61.32 222.629 61.32Z" fill="#00ADB5"/>
<path d="M85.5527 61L84.4246 60.3538L83.3097 62.3H85.5527V61ZM101.593 33V31.7H100.839L100.465 32.3538L101.593 33ZM109.433 33L110.708 32.7503L110.503 31.7H109.433V33ZM114.913 61V62.3H116.492L116.188 60.7503L114.913 61ZM107.553 61L106.268 61.2005L106.44 62.3H107.553V61ZM104.313 40.24L105.597 40.0395L105.426 38.94H104.313V40.24ZM104.233 40.24V38.94H103.437L103.075 39.6488L104.233 40.24ZM93.6327 61V62.3H94.4285L94.7905 61.5912L93.6327 61ZM94.1927 56.12L92.9183 55.8633L92.6047 57.42H94.1927V56.12ZM95.3127 50.56V49.26H94.2484L94.0383 50.3033L95.3127 50.56ZM109.273 50.56L110.547 50.8167L110.861 49.26H109.273V50.56ZM108.153 56.12V57.42H109.217L109.427 56.3767L108.153 56.12ZM86.6807 61.6462L102.721 33.6462L100.465 32.3538L84.4246 60.3538L86.6807 61.6462ZM101.593 34.3H109.433V31.7H101.593V34.3ZM108.157 33.2497L113.637 61.2497L116.188 60.7503L110.708 32.7503L108.157 33.2497ZM114.913 59.7H107.553V62.3H114.913V59.7ZM108.837 60.7995L105.597 40.0395L103.028 40.4405L106.268 61.2005L108.837 60.7995ZM104.313 38.94H104.233V41.54H104.313V38.94ZM103.075 39.6488L92.4748 60.4088L94.7905 61.5912L105.39 40.8312L103.075 39.6488ZM93.6327 59.7H85.5527V62.3H93.6327V59.7ZM95.4671 56.3767L96.5871 50.8167L94.0383 50.3033L92.9183 55.8633L95.4671 56.3767ZM95.3127 51.86H109.273V49.26H95.3127V51.86ZM107.998 50.3033L106.878 55.8633L109.427 56.3767L110.547 50.8167L107.998 50.3033ZM108.153 54.82H94.1927V57.42H108.153V54.82ZM118.929 60.44L118.242 61.5441L118.253 61.5508L118.264 61.5574L118.929 60.44ZM116.809 57.88L115.588 58.3267L115.592 58.3397L115.598 58.3526L116.809 57.88ZM116.609 54.16L115.333 53.9086L115.332 53.9145L116.609 54.16ZM119.329 40.36V39.06H118.26L118.053 40.1086L119.329 40.36ZM126.169 40.36L127.445 40.6076L127.745 39.06H126.169V40.36ZM123.849 52.32L122.572 52.0724L122.57 52.0864L122.567 52.1003L123.849 52.32ZM124.169 54.48L123.122 55.2512L123.132 55.2648L123.142 55.2781L124.169 54.48ZM127.329 55.08L127.601 56.3511L127.329 55.08ZM128.489 54.76L128.9 55.9933L128.943 55.9788L128.986 55.9612L128.489 54.76ZM129.649 54.28L130.146 55.4812L130.791 55.2143L130.924 54.5293L129.649 54.28ZM132.369 40.36V39.06H131.298L131.093 40.1107L132.369 40.36ZM139.209 40.36L140.484 40.6097L140.788 39.06H139.209V40.36ZM135.169 61V62.3H136.239L136.444 61.2497L135.169 61ZM130.129 61L128.829 61.0428L128.871 62.3H130.129V61ZM130.009 57.36L130.761 56.2998L128.623 54.7825L128.709 57.4028L130.009 57.36ZM131.249 58.24L131.853 59.3912L133.73 58.4066L132.001 57.1798L131.249 58.24ZM128.809 59.52L128.205 58.3688L128.195 58.3737L128.809 59.52ZM125.529 60.88L125.176 59.6288L125.529 60.88ZM122.529 60.02C121.295 60.02 120.337 59.7649 119.593 59.3226L118.264 61.5574C119.494 62.2884 120.935 62.62 122.529 62.62V60.02ZM119.615 59.3359C118.869 58.8725 118.345 58.242 118.02 57.4074L115.598 58.3526C116.125 59.7047 117.014 60.7808 118.242 61.5441L119.615 59.3359ZM118.029 57.4333C117.726 56.6043 117.654 55.61 117.885 54.4055L115.332 53.9145C115.03 55.4833 115.091 56.9691 115.588 58.3267L118.029 57.4333ZM117.884 54.4114L120.604 40.6114L118.053 40.1086L115.333 53.9086L117.884 54.4114ZM119.329 41.66H126.169V39.06H119.329V41.66ZM124.892 40.1124L122.572 52.0724L125.125 52.5676L127.445 40.6076L124.892 40.1124ZM122.567 52.1003C122.377 53.2075 122.453 54.3433 123.122 55.2512L125.215 53.7088C125.137 53.6033 125 53.2991 125.13 52.5397L122.567 52.1003ZM123.142 55.2781C123.883 56.2297 125.07 56.5 126.209 56.5V53.9C125.374 53.9 125.201 53.6903 125.195 53.6819L123.142 55.2781ZM126.209 56.5C126.676 56.5 127.14 56.4499 127.601 56.3511L127.056 53.8089C126.77 53.8701 126.488 53.9 126.209 53.9V56.5ZM127.601 56.3511C128.026 56.2601 128.459 56.1402 128.9 55.9933L128.077 53.5267C127.718 53.6464 127.378 53.7399 127.056 53.8089L127.601 56.3511ZM128.986 55.9612L130.146 55.4812L129.152 53.0788L127.992 53.5588L128.986 55.9612ZM130.924 54.5293L133.644 40.6093L131.093 40.1107L128.373 54.0307L130.924 54.5293ZM132.369 41.66H139.209V39.06H132.369V41.66ZM137.933 40.1103L133.893 60.7503L136.444 61.2497L140.484 40.6097L137.933 40.1103ZM135.169 59.7H130.129V62.3H135.169V59.7ZM131.428 60.9572L131.308 57.3172L128.709 57.4028L128.829 61.0428L131.428 60.9572ZM129.256 58.4202L130.496 59.3002L132.001 57.1798L130.761 56.2998L129.256 58.4202ZM130.645 57.0888L128.205 58.3688L129.413 60.6712L131.853 59.3912L130.645 57.0888ZM128.195 58.3737C127.115 58.9514 126.109 59.3655 125.176 59.6288L125.881 62.1312C127.028 61.8079 128.208 61.3153 129.422 60.6663L128.195 58.3737ZM125.176 59.6288C124.236 59.8938 123.355 60.02 122.529 60.02V62.62C123.622 62.62 124.741 62.4529 125.881 62.1312L125.176 59.6288ZM144.674 51.76L143.387 51.9438L143.546 53.06H144.674V51.76ZM144.554 50.52H143.254V50.5582L143.256 50.5963L144.554 50.52ZM144.674 49.28L145.945 49.5524L144.674 49.28ZM146.154 46.44L147.089 47.343L147.097 47.3351L147.104 47.327L146.154 46.44ZM149.074 44.48L149.58 45.6777L149.591 45.6726L149.074 44.48ZM152.394 43.04L151.877 41.8472L151.877 41.8474L152.394 43.04ZM154.074 42.04L153.155 41.1208L154.074 42.04ZM154.714 40.68L153.445 40.398L153.434 40.4467L153.427 40.4962L154.714 40.68ZM154.434 39.44L155.426 38.6003V38.6003L154.434 39.44ZM152.914 38.6L152.545 39.8464H152.545L152.914 38.6ZM147.634 38.36L147.555 37.0624L147.553 37.0625L147.634 38.36ZM144.714 38.68L144.852 39.9726L144.877 39.9699L144.902 39.9663L144.714 38.68ZM142.474 38.92L141.182 39.0648L141.326 40.3504L142.612 40.2126L142.474 38.92ZM141.954 34.28L141.617 33.0244L140.538 33.314L140.662 34.4248L141.954 34.28ZM143.594 33.84L143.931 35.0956L143.938 35.0938L143.944 35.0919L143.594 33.84ZM147.794 32.96L147.981 34.2465L147.992 34.2448L148.004 34.2429L147.794 32.96ZM157.874 33.68L158.43 32.5051V32.5051L157.874 33.68ZM161.154 36.64L160.006 37.2505L160.012 37.2608L161.154 36.64ZM161.674 40.84L160.4 40.5809L160.398 40.593L160.395 40.6052L161.674 40.84ZM160.434 44.08L161.494 44.8324L161.5 44.8245L161.505 44.8165L160.434 44.08ZM158.154 46.2L158.823 47.3147L158.834 47.3078L158.846 47.3006L158.154 46.2ZM154.754 47.88L155.237 49.087L155.247 49.0829L155.257 49.0786L154.754 47.88ZM151.754 49.08L152.217 50.2948L152.227 50.291L152.237 50.287L151.754 49.08ZM150.474 49.84L151.393 50.7592V50.7592L150.474 49.84ZM149.954 50.96L148.672 50.7463L148.67 50.7567L148.668 50.7672L149.954 50.96ZM149.834 51.76V53.06H150.953L151.12 51.9528L149.834 51.76ZM142.514 60.2L141.512 61.0288L141.52 61.0375L141.527 61.046L142.514 60.2ZM141.874 57.32L140.597 57.0768L140.596 57.0822L141.874 57.32ZM143.554 54.68L142.804 53.6179L143.554 54.68ZM149.514 54.88L148.512 55.7088L148.521 55.7189L148.529 55.7288L149.514 54.88ZM150.194 57.68L151.466 57.9463L151.468 57.9377L151.47 57.929L150.194 57.68ZM148.474 60.36L147.724 59.2979L148.474 60.36ZM145.961 51.5762C145.914 51.2448 145.877 50.868 145.852 50.4437L143.256 50.5963C143.285 51.0787 143.328 51.5285 143.387 51.9438L145.961 51.5762ZM145.854 50.52C145.854 50.1417 145.887 49.8214 145.945 49.5524L143.403 49.0076C143.3 49.4853 143.254 49.9916 143.254 50.52H145.854ZM145.945 49.5524C146.138 48.6536 146.522 47.93 147.089 47.343L145.219 45.537C144.292 46.4966 143.69 47.6664 143.403 49.0076L145.945 49.5524ZM147.104 47.327C147.705 46.6836 148.516 46.1265 149.58 45.6776L148.568 43.2824C147.231 43.8468 146.096 44.5964 145.204 45.553L147.104 47.327ZM149.591 45.6726L152.911 44.2326L151.877 41.8474L148.557 43.2874L149.591 45.6726ZM152.911 44.2328C153.748 43.87 154.494 43.4582 154.993 42.9592L153.155 41.1208C153.014 41.2618 152.64 41.5167 151.877 41.8472L152.911 44.2328ZM154.993 42.9592C155.568 42.384 155.887 41.6577 156.001 40.8638L153.427 40.4962C153.38 40.8223 153.273 41.0026 153.155 41.1208L154.993 42.9592ZM155.983 40.962C156.169 40.1234 156.006 39.2856 155.426 38.6003L153.441 40.2797C153.448 40.2874 153.452 40.293 153.454 40.2965C153.457 40.3 153.458 40.3018 153.458 40.302C153.458 40.3021 153.457 40.3014 153.457 40.2999C153.456 40.2984 153.456 40.2971 153.456 40.2963C153.454 40.2882 153.463 40.3153 153.445 40.398L155.983 40.962ZM155.426 38.6003C154.894 37.9714 154.103 37.5965 153.283 37.3536L152.545 39.8464C153.165 40.0301 153.387 40.2153 153.442 40.2797L155.426 38.6003ZM153.283 37.3536C152.394 37.09 151.294 36.98 150.034 36.98V39.58C151.174 39.58 151.994 39.6833 152.545 39.8464L153.283 37.3536ZM150.034 36.98C149.283 36.98 148.456 37.0078 147.555 37.0624L147.713 39.6576C148.572 39.6055 149.345 39.58 150.034 39.58V36.98ZM147.553 37.0625C146.655 37.1186 145.645 37.2299 144.526 37.3937L144.902 39.9663C145.97 39.8101 146.906 39.708 147.715 39.6575L147.553 37.0625ZM144.575 37.3874L142.335 37.6274L142.612 40.2126L144.852 39.9726L144.575 37.3874ZM143.766 38.7752L143.246 34.1352L140.662 34.4248L141.182 39.0648L143.766 38.7752ZM142.291 35.5356L143.931 35.0956L143.257 32.5844L141.617 33.0244L142.291 35.5356ZM143.944 35.0919C145.22 34.7346 146.566 34.4523 147.981 34.2465L147.607 31.6735C146.089 31.8943 144.634 32.1988 143.243 32.5881L143.944 35.0919ZM148.004 34.2429C149.402 34.0141 150.798 33.9 152.194 33.9V31.3C150.656 31.3 149.119 31.4259 147.584 31.6771L148.004 34.2429ZM152.194 33.9C154.332 33.9 156.021 34.2407 157.317 34.8549L158.43 32.5051C156.687 31.6793 154.59 31.3 152.194 31.3V33.9ZM157.317 34.8549C158.633 35.478 159.494 36.2872 160.006 37.2505L162.302 36.0295C161.481 34.4862 160.155 33.322 158.43 32.5051L157.317 34.8549ZM160.012 37.2608C160.511 38.179 160.669 39.2597 160.4 40.5809L162.948 41.0991C163.319 39.2736 163.13 37.5543 162.296 36.0192L160.012 37.2608ZM160.395 40.6052C160.179 41.7808 159.821 42.6772 159.363 43.3435L161.505 44.8165C162.22 43.7762 162.688 42.5125 162.953 41.0748L160.395 40.6052ZM159.374 43.3276C158.894 44.0034 158.264 44.5955 157.462 45.0994L158.846 47.3006C159.911 46.6312 160.8 45.8099 161.494 44.8324L159.374 43.3276ZM157.485 45.0853C156.619 45.605 155.544 46.1381 154.251 46.6814L155.257 49.0786C156.63 48.5019 157.822 47.915 158.823 47.3147L157.485 45.0853ZM154.271 46.673L151.271 47.873L152.237 50.287L155.237 49.087L154.271 46.673ZM151.291 47.8652C150.63 48.117 150.022 48.4535 149.555 48.9208L151.393 50.7592C151.513 50.6398 151.758 50.4697 152.217 50.2948L151.291 47.8652ZM149.555 48.9208C149.047 49.4279 148.783 50.0765 148.672 50.7463L151.236 51.1737C151.285 50.8835 151.367 50.7854 151.393 50.7592L149.555 48.9208ZM148.668 50.7672L148.548 51.5672L151.12 51.9528L151.24 51.1528L148.668 50.7672ZM149.834 50.46H144.674V53.06H149.834V50.46ZM145.274 60.02C144.362 60.02 143.84 59.7498 143.501 59.354L141.527 61.046C142.468 62.1436 143.786 62.62 145.274 62.62V60.02ZM143.515 59.3712C143.162 58.9445 142.996 58.3938 143.152 57.5578L140.596 57.0822C140.325 58.5395 140.586 59.9089 141.512 61.0288L143.515 59.3712ZM143.151 57.5632C143.303 56.7641 143.68 56.1819 144.304 55.7421L142.804 53.6179C141.614 54.4581 140.871 55.6359 140.597 57.0768L143.151 57.5632ZM144.304 55.7421C144.968 55.2731 145.766 55.02 146.754 55.02V52.42C145.288 52.42 143.953 52.8069 142.804 53.6179L144.304 55.7421ZM146.754 55.02C147.65 55.02 148.168 55.2929 148.512 55.7088L150.515 54.0512C149.58 52.9204 148.258 52.42 146.754 52.42V55.02ZM148.529 55.7288C148.91 56.1701 149.063 56.6881 148.918 57.431L151.47 57.929C151.752 56.4852 151.451 55.1366 150.499 54.0312L148.529 55.7288ZM148.921 57.4137C148.745 58.2582 148.346 58.8588 147.724 59.2979L149.224 61.4221C150.415 60.5812 151.163 59.3951 151.466 57.9463L148.921 57.4137ZM147.724 59.2979C147.06 59.7669 146.262 60.02 145.274 60.02V62.62C146.739 62.62 148.075 62.2331 149.224 61.4221L147.724 59.2979ZM165.072 59.72L164.165 60.6505L165.072 59.72ZM164.112 54.64L162.838 54.3839L162.836 54.3907L164.112 54.64ZM165.872 45.88L167.147 46.1361L167.46 44.58H165.872V45.88ZM161.592 45.88L160.315 45.6362L160.021 47.18H161.592V45.88ZM162.432 41.48L162.117 40.2188L161.311 40.4203L161.155 41.2362L162.432 41.48ZM166.912 40.36L167.228 41.6212L168.027 41.4213L168.188 40.6128L166.912 40.36ZM167.832 35.72L167.542 34.4528L166.721 34.6409L166.557 35.4672L167.832 35.72ZM174.992 34.08L176.269 34.324L176.643 32.3683L174.702 32.8128L174.992 34.08ZM173.792 40.36L172.515 40.116L172.22 41.66H173.792V40.36ZM179.832 40.36L181.108 40.6096L181.411 39.06H179.832V40.36ZM178.752 45.88V47.18H179.823L180.028 46.1296L178.752 45.88ZM172.672 45.88V44.58H171.598L171.396 45.6355L172.672 45.88ZM171.232 53.4L172.503 53.6762L172.506 53.6604L172.509 53.6445L171.232 53.4ZM171.472 54.88L172.495 54.0768L171.472 54.88ZM174.432 55.4L174.34 54.1033L174.333 54.1038L174.432 55.4ZM175.512 55.32L175.612 56.6162L175.646 56.6135L175.68 56.6091L175.512 55.32ZM176.432 55.2L177.732 55.2106L177.744 53.7178L176.264 53.9109L176.432 55.2ZM176.392 60.12L176.789 61.3582L177.685 61.0714L177.692 60.1306L176.392 60.12ZM175.392 60.44L175.754 61.6887L175.771 61.6837L175.789 61.6782L175.392 60.44ZM172.472 61.08L172.288 59.7931L172.267 59.7961L172.246 59.7998L172.472 61.08ZM169.832 60.02C167.966 60.02 166.754 59.5442 165.98 58.7895L164.165 60.6505C165.578 62.0292 167.538 62.62 169.832 62.62V60.02ZM165.98 58.7895C165.346 58.1706 164.971 57.0261 165.388 54.8893L162.836 54.3907C162.347 56.8939 162.612 59.1361 164.165 60.6505L165.98 58.7895ZM165.387 54.8961L167.147 46.1361L164.598 45.6239L162.838 54.3839L165.387 54.8961ZM165.872 44.58H161.592V47.18H165.872V44.58ZM162.869 46.1238L163.709 41.7238L161.155 41.2362L160.315 45.6362L162.869 46.1238ZM162.748 42.7412L167.228 41.6212L166.597 39.0988L162.117 40.2188L162.748 42.7412ZM168.188 40.6128L169.108 35.9728L166.557 35.4672L165.637 40.1072L168.188 40.6128ZM168.123 36.9872L175.283 35.3472L174.702 32.8128L167.542 34.4528L168.123 36.9872ZM173.715 33.836L172.515 40.116L175.069 40.604L176.269 34.324L173.715 33.836ZM173.792 41.66H179.832V39.06H173.792V41.66ZM178.557 40.1104L177.477 45.6304L180.028 46.1296L181.108 40.6096L178.557 40.1104ZM178.752 44.58H172.672V47.18H178.752V44.58ZM171.396 45.6355L169.956 53.1555L172.509 53.6445L173.949 46.1245L171.396 45.6355ZM169.962 53.1238C169.775 53.9855 169.846 54.9137 170.45 55.6832L172.495 54.0768C172.491 54.0724 172.482 54.0632 172.476 54.0219C172.467 53.9714 172.462 53.8628 172.503 53.6762L169.962 53.1238ZM170.45 55.6832C171.136 56.5558 172.272 56.74 173.232 56.74V54.14C172.874 54.14 172.651 54.1007 172.527 54.0612C172.408 54.0236 172.439 54.0057 172.495 54.0768L170.45 55.6832ZM173.232 56.74C173.71 56.74 174.144 56.726 174.532 56.6962L174.333 54.1038C174.027 54.1273 173.662 54.14 173.232 54.14V56.74ZM174.525 56.6967C174.9 56.6699 175.263 56.643 175.612 56.6162L175.413 54.0238C175.069 54.0503 174.711 54.0768 174.34 54.1033L174.525 56.6967ZM175.68 56.6091L176.6 56.4891L176.264 53.9109L175.344 54.0309L175.68 56.6091ZM175.132 55.1894L175.092 60.1094L177.692 60.1306L177.732 55.2106L175.132 55.1894ZM175.996 58.8818L174.996 59.2018L175.789 61.6782L176.789 61.3582L175.996 58.8818ZM175.031 59.1913C174.069 59.4697 173.155 59.6692 172.288 59.7931L172.656 62.3669C173.656 62.2241 174.689 61.997 175.754 61.6887L175.031 59.1913ZM172.246 59.7998C171.409 59.9476 170.604 60.02 169.832 60.02V62.62C170.767 62.62 171.723 62.5324 172.698 62.3602L172.246 59.7998ZM182.583 59.72L181.675 60.6505L182.583 59.72ZM181.623 54.64L180.349 54.3839L180.347 54.3907L181.623 54.64ZM183.383 45.88L184.658 46.1361L184.97 44.58H183.383V45.88ZM179.103 45.88L177.826 45.6362L177.532 47.18H179.103V45.88ZM179.943 41.48L179.628 40.2188L178.822 40.4203L178.666 41.2362L179.943 41.48ZM184.423 40.36L184.739 41.6212L185.538 41.4213L185.698 40.6128L184.423 40.36ZM185.343 35.72L185.053 34.4528L184.232 34.6409L184.068 35.4672L185.343 35.72ZM192.503 34.08L193.78 34.324L194.154 32.3683L192.213 32.8128L192.503 34.08ZM191.303 40.36L190.026 40.116L189.731 41.66H191.303V40.36ZM197.343 40.36L198.619 40.6096L198.922 39.06H197.343V40.36ZM196.263 45.88V47.18H197.334L197.539 46.1296L196.263 45.88ZM190.183 45.88V44.58H189.109L188.906 45.6355L190.183 45.88ZM188.743 53.4L190.014 53.6762L190.017 53.6604L190.02 53.6445L188.743 53.4ZM188.983 54.88L190.005 54.0768L188.983 54.88ZM191.943 55.4L191.851 54.1033L191.844 54.1038L191.943 55.4ZM193.023 55.32L193.123 56.6162L193.157 56.6135L193.191 56.6091L193.023 55.32ZM193.943 55.2L195.243 55.2106L195.255 53.7178L193.775 53.9109L193.943 55.2ZM193.903 60.12L194.299 61.3582L195.196 61.0714L195.203 60.1306L193.903 60.12ZM192.903 60.44L193.265 61.6887L193.282 61.6837L193.299 61.6782L192.903 60.44ZM189.983 61.08L189.799 59.7931L189.778 59.7961L189.757 59.7998L189.983 61.08ZM187.343 60.02C185.477 60.02 184.265 59.5442 183.491 58.7895L181.675 60.6505C183.089 62.0292 185.049 62.62 187.343 62.62V60.02ZM183.491 58.7895C182.857 58.1706 182.482 57.0261 182.899 54.8893L180.347 54.3907C179.858 56.8939 180.123 59.1361 181.675 60.6505L183.491 58.7895ZM182.898 54.8961L184.658 46.1361L182.109 45.6239L180.349 54.3839L182.898 54.8961ZM183.383 44.58H179.103V47.18H183.383V44.58ZM180.38 46.1238L181.22 41.7238L178.666 41.2362L177.826 45.6362L180.38 46.1238ZM180.259 42.7412L184.739 41.6212L184.108 39.0988L179.628 40.2188L180.259 42.7412ZM185.698 40.6128L186.618 35.9728L184.068 35.4672L183.148 40.1072L185.698 40.6128ZM185.634 36.9872L192.794 35.3472L192.213 32.8128L185.053 34.4528L185.634 36.9872ZM191.226 33.836L190.026 40.116L192.58 40.604L193.78 34.324L191.226 33.836ZM191.303 41.66H197.343V39.06H191.303V41.66ZM196.067 40.1104L194.987 45.6304L197.539 46.1296L198.619 40.6096L196.067 40.1104ZM196.263 44.58H190.183V47.18H196.263V44.58ZM188.906 45.6355L187.466 53.1555L190.02 53.6445L191.46 46.1245L188.906 45.6355ZM187.473 53.1238C187.286 53.9855 187.356 54.9137 187.961 55.6832L190.005 54.0768C190.002 54.0724 189.993 54.0632 189.987 54.0219C189.978 53.9714 189.973 53.8628 190.014 53.6762L187.473 53.1238ZM187.961 55.6832C188.647 56.5558 189.783 56.74 190.743 56.74V54.14C190.385 54.14 190.162 54.1007 190.037 54.0612C189.919 54.0236 189.95 54.0057 190.005 54.0768L187.961 55.6832ZM190.743 56.74C191.221 56.74 191.655 56.726 192.043 56.6962L191.844 54.1038C191.538 54.1273 191.173 54.14 190.743 54.14V56.74ZM192.036 56.6967C192.411 56.6699 192.774 56.643 193.123 56.6162L192.924 54.0238C192.579 54.0503 192.222 54.0768 191.851 54.1033L192.036 56.6967ZM193.191 56.6091L194.111 56.4891L193.775 53.9109L192.855 54.0309L193.191 56.6091ZM192.643 55.1894L192.603 60.1094L195.203 60.1306L195.243 55.2106L192.643 55.1894ZM193.507 58.8818L192.507 59.2018L193.299 61.6782L194.299 61.3582L193.507 58.8818ZM192.542 59.1913C191.58 59.4697 190.666 59.6692 189.799 59.7931L190.167 62.3669C191.167 62.2241 192.2 61.997 193.265 61.6887L192.542 59.1913ZM189.757 59.7998C188.919 59.9476 188.115 60.02 187.343 60.02V62.62C188.278 62.62 189.234 62.5324 190.209 62.3602L189.757 59.7998ZM199.905 59.8L199.193 60.8874L199.202 60.8929L199.905 59.8ZM196.585 55.68L195.366 56.1303L195.369 56.1385L195.372 56.1467L196.585 55.68ZM196.265 49.88L197.54 50.135L197.541 50.1315L196.265 49.88ZM198.345 44.8L197.27 44.07L198.345 44.8ZM202.425 41.28L201.851 40.1137L201.844 40.1172L202.425 41.28ZM213.385 40.92L212.824 42.0924L212.833 42.0968L213.385 40.92ZM216.505 43.44L215.453 44.2031L215.459 44.2116L215.465 44.22L216.505 43.44ZM218.065 47.12L216.785 47.3417L216.787 47.3559L216.79 47.3701L218.065 47.12ZM218.025 51.44L219.301 51.6886L219.302 51.6863L218.025 51.44ZM215.825 56.76L216.877 57.5247L216.883 57.5156L215.825 56.76ZM211.665 60.16L212.209 61.3409L212.217 61.3371L211.665 60.16ZM209.425 54.6L210.221 55.6279L210.226 55.6244L209.425 54.6ZM211.145 51.12L209.876 50.8413L209.87 50.867L209.865 50.8929L211.145 51.12ZM211.225 48.28L209.951 48.535L209.955 48.5552L209.959 48.5754L211.225 48.28ZM210.145 46.44L209.304 47.4305L209.33 47.453L209.358 47.4741L210.145 46.44ZM204.705 46.8L203.854 45.8176L204.705 46.8ZM203.065 50.28L204.341 50.5296L204.343 50.5202L204.345 50.5107L203.065 50.28ZM203.025 53.32L201.769 53.655L201.772 53.6657L203.025 53.32ZM204.185 55.04L203.464 56.1217L203.483 56.1338L203.501 56.1453L204.185 55.04ZM205.705 60.02C203.605 60.02 201.93 59.5576 200.609 58.7071L199.202 60.8929C201.028 62.0691 203.219 62.62 205.705 62.62V60.02ZM200.618 58.7126C199.3 57.8493 198.368 56.6936 197.799 55.2133L195.372 56.1467C196.136 58.1331 197.417 59.7241 199.193 60.8874L200.618 58.7126ZM197.805 55.2297C197.262 53.7592 197.152 52.075 197.54 50.135L194.991 49.625C194.525 51.9517 194.629 54.1342 195.366 56.1303L197.805 55.2297ZM197.541 50.1315C197.883 48.3974 198.513 46.869 199.421 45.53L197.27 44.07C196.152 45.7176 195.395 47.5759 194.99 49.6285L197.541 50.1315ZM199.421 45.53C200.302 44.2315 201.487 43.2024 203.007 42.4428L201.844 40.1172C199.95 41.0642 198.415 42.3819 197.27 44.07L199.421 45.53ZM203 42.4463C204.509 41.7031 206.421 41.3 208.785 41.3V38.7C206.137 38.7 203.808 39.1503 201.851 40.1137L203 42.4463ZM208.785 41.3C210.427 41.3 211.758 41.5819 212.824 42.0924L213.947 39.7476C212.453 39.0314 210.718 38.7 208.785 38.7V41.3ZM212.833 42.0968C213.96 42.6259 214.821 43.331 215.453 44.2031L217.558 42.6769C216.644 41.4156 215.424 40.4408 213.938 39.7432L212.833 42.0968ZM215.465 44.22C216.135 45.1131 216.578 46.146 216.785 47.3417L219.346 46.8983C219.073 45.3207 218.476 43.9002 217.545 42.66L215.465 44.22ZM216.79 47.3701C217.021 48.5481 217.014 49.8185 216.749 51.1937L219.302 51.6863C219.623 50.0215 219.644 48.4119 219.341 46.8699L216.79 47.3701ZM216.749 51.1914C216.38 53.0876 215.712 54.6823 214.768 56.0044L216.883 57.5156C218.072 55.851 218.871 53.899 219.301 51.6886L216.749 51.1914ZM214.774 55.9954C213.842 57.2775 212.63 58.2722 211.114 58.9829L212.217 61.3371C214.114 60.4478 215.676 59.1759 216.877 57.5246L214.774 55.9954ZM211.122 58.9791C209.648 59.6575 207.855 60.02 205.705 60.02V62.62C208.143 62.62 210.323 62.2092 212.209 61.3409L211.122 58.9791ZM206.225 56.86C207.747 56.86 209.115 56.4845 210.221 55.6279L208.63 53.5721C208.083 53.9955 207.317 54.26 206.225 54.26V56.86ZM210.226 55.6244C211.44 54.6762 212.106 53.1493 212.425 51.3471L209.865 50.8929C209.599 52.3973 209.118 53.1905 208.625 53.5756L210.226 55.6244ZM212.415 51.3987C212.683 50.181 212.735 49.0288 212.491 47.9846L209.959 48.5754C210.089 49.1312 210.088 49.8723 209.876 50.8413L212.415 51.3987ZM212.5 48.025C212.289 46.9671 211.784 46.0544 210.933 45.4059L209.358 47.4741C209.626 47.6789 209.842 47.9929 209.951 48.535L212.5 48.025ZM210.987 45.4495C210.151 44.7381 209.084 44.46 207.945 44.46V47.06C208.674 47.06 209.074 47.2352 209.304 47.4305L210.987 45.4495ZM207.945 44.46C206.364 44.46 204.951 44.8667 203.854 45.8176L205.557 47.7824C206.06 47.3467 206.807 47.06 207.945 47.06V44.46ZM203.854 45.8176C202.734 46.7879 202.104 48.2853 201.786 50.0493L204.345 50.5107C204.613 49.0214 205.077 48.1987 205.557 47.7824L203.854 45.8176ZM201.79 50.0304C201.529 51.3608 201.486 52.5918 201.769 53.655L204.282 52.985C204.138 52.4482 204.122 51.6525 204.341 50.5296L201.79 50.0304ZM201.772 53.6657C202.052 54.6796 202.596 55.5429 203.464 56.1217L204.907 53.9583C204.655 53.7904 204.426 53.507 204.279 52.9743L201.772 53.6657ZM203.501 56.1453C204.307 56.6441 205.236 56.86 206.225 56.86V54.26C205.615 54.26 205.184 54.1292 204.87 53.9347L203.501 56.1453ZM222.069 51.6L220.773 51.4951L220.66 52.9H222.069V51.6ZM222.989 40.24L221.713 39.9932L221.699 40.0636L221.693 40.1351L222.989 40.24ZM224.389 33V31.7H223.317L223.113 32.7532L224.389 33ZM231.789 33L233.066 33.2468L233.365 31.7H231.789V33ZM230.389 40.24L231.631 40.6248L231.652 40.5567L231.666 40.4868L230.389 40.24ZM226.869 51.6V52.9H227.827L228.111 51.9848L226.869 51.6ZM219.829 60.24L218.842 61.086L218.858 61.1049L218.875 61.1232L219.829 60.24ZM219.189 57.4L217.912 57.1568L217.911 57.1622L219.189 57.4ZM220.829 54.72L220.059 53.6727L220.052 53.6782L220.044 53.6838L220.829 54.72ZM226.829 54.84L225.859 55.7058L225.867 55.7146L225.875 55.7232L226.829 54.84ZM227.469 57.6L226.198 57.3276L226.194 57.3449L226.191 57.3622L227.469 57.6ZM225.789 60.32L225.019 59.2727L225.012 59.2782L225.004 59.2838L225.789 60.32ZM223.365 51.7049L224.285 40.3449L221.693 40.1351L220.773 51.4951L223.365 51.7049ZM224.266 40.4868L225.666 33.2468L223.113 32.7532L221.713 39.9932L224.266 40.4868ZM224.389 34.3H231.789V31.7H224.389V34.3ZM230.513 32.7532L229.113 39.9932L231.666 40.4868L233.066 33.2468L230.513 32.7532ZM229.147 39.8552L225.627 51.2152L228.111 51.9848L231.631 40.6248L229.147 39.8552ZM226.869 50.3H222.069V52.9H226.869V50.3ZM222.629 60.02C221.704 60.02 221.15 59.7533 220.783 59.3568L218.875 61.1232C219.841 62.1667 221.154 62.62 222.629 62.62V60.02ZM220.816 59.394C220.481 59.0028 220.311 58.4779 220.467 57.6378L217.911 57.1622C217.641 58.6155 217.897 59.9839 218.842 61.086L220.816 59.394ZM220.466 57.6432C220.622 56.828 221 56.2217 221.614 55.7562L220.044 53.6838C218.899 54.5517 218.184 55.732 217.912 57.1568L220.466 57.6432ZM221.599 55.7673C222.262 55.2797 223.053 55.02 224.029 55.02V52.42C222.552 52.42 221.209 52.8269 220.059 53.6727L221.599 55.7673ZM224.029 55.02C224.939 55.02 225.488 55.2901 225.859 55.7058L227.799 53.9742C226.837 52.8966 225.519 52.42 224.029 52.42V55.02ZM225.875 55.7232C226.203 56.0774 226.366 56.542 226.198 57.3276L228.74 57.8724C229.052 56.418 228.788 55.0426 227.783 53.9568L225.875 55.7232ZM226.191 57.3622C226.036 58.1974 225.649 58.8093 225.019 59.2727L226.559 61.3673C227.742 60.4974 228.476 59.296 228.747 57.8378L226.191 57.3622ZM225.004 59.2838C224.375 59.7603 223.606 60.02 222.629 60.02V62.62C224.106 62.62 225.443 62.213 226.574 61.3562L225.004 59.2838Z" fill="#333333" mask="url(#path-1-outside-1_340_866)"/>
<path d="M26.5626 46.5715H26.0526C25.0667 46.5715 24.2676 47.3707 24.2676 48.3565C24.2676 49.3424 25.0667 50.1415 26.0526 50.1415H26.5626C27.5484 50.1415 28.3476 49.3424 28.3476 48.3565C28.3476 47.3707 27.5484 46.5715 26.5626 46.5715Z" fill="#0A84FF"/>
<path d="M56.6525 40.2815H49.6825C48.6966 40.2815 47.8975 41.0807 47.8975 42.0665C47.8975 43.0523 48.6966 43.8515 49.6825 43.8515H56.6525C57.6383 43.8515 58.4375 43.0523 58.4375 42.0665C58.4375 41.0807 57.6383 40.2815 56.6525 40.2815Z" fill="#00ADB5"/>
<path d="M56.6525 46.5715H49.6825C48.6966 46.5715 47.8975 47.3707 47.8975 48.3565C47.8975 49.3424 48.6966 50.1415 49.6825 50.1415H56.6525C57.6383 50.1415 58.4375 49.3424 58.4375 48.3565C58.4375 47.3707 57.6383 46.5715 56.6525 46.5715Z" fill="#0A84FF"/>
<path d="M56.6525 53.0315H49.6825C48.6966 53.0315 47.8975 53.8307 47.8975 54.8165C47.8975 55.8023 48.6966 56.6015 49.6825 56.6015H56.6525C57.6383 56.6015 58.4375 55.8023 58.4375 54.8165C58.4375 53.8307 57.6383 53.0315 56.6525 53.0315Z" fill="#A2D2FF"/>
<path d="M35.4026 40.2815H26.0526C25.0667 40.2815 24.2676 41.0807 24.2676 42.0665C24.2676 43.0523 25.0667 43.8515 26.0526 43.8515H35.4026C36.3884 43.8515 37.1876 43.0523 37.1876 42.0665C37.1876 41.0807 36.3884 40.2815 35.4026 40.2815Z" fill="#00ADB5"/>
<path d="M26.9876 54.3405C26.9876 53.5894 26.3787 52.9805 25.6276 52.9805C24.8765 52.9805 24.2676 53.5894 24.2676 54.3405V55.1905C24.2676 55.9416 24.8765 56.5505 25.6276 56.5505C26.3787 56.5505 26.9876 55.9416 26.9876 55.1905V54.3405Z" fill="#A2D2FF"/>
<path d="M75.8795 39.7715C75.99 39.7715 76.075 39.6865 76.075 39.576V34.9095C76.075 34.544 75.7775 34.2465 75.412 34.2295C71.9355 34.102 69.224 30.6085 68.5865 28.0075C68.51 27.7015 68.238 27.489 67.9235 27.489H61.404C61.166 27.489 60.979 27.676 60.979 27.914V63.9795C60.979 64.9145 60.214 65.6795 59.279 65.6795H23.409C22.474 65.6795 21.709 64.9145 21.709 63.9795V32.912C21.709 32.0025 22.423 31.2545 23.3325 31.212L36.5585 30.6085C36.788 30.6 36.9665 30.4045 36.9665 30.175L36.9325 27.897C36.9325 27.6675 36.737 27.4805 36.5075 27.4805H21.284H17.0595C16.745 27.4805 16.473 27.693 16.3965 27.999C15.759 30.6085 13.0475 34.0935 9.57096 34.221C9.20546 34.238 8.90796 34.527 8.90796 34.901V39.5675C8.90796 39.678 9.00146 39.763 9.10346 39.763C10.659 39.763 12.3505 41.0125 13.226 42.228C13.7615 42.9675 13.7615 43.979 13.226 44.7185C12.3505 45.934 10.659 47.1835 9.10346 47.1835C8.99296 47.1835 8.90796 47.2685 8.90796 47.379V49.487C8.90796 49.5975 8.99296 49.6825 9.10346 49.6825C10.659 49.6825 12.3505 50.932 13.226 52.1475C14.1015 53.363 13.7615 53.8985 13.226 54.638C12.3505 55.8535 10.659 57.103 9.10346 57.103C8.99296 57.103 8.90796 57.188 8.90796 57.2985V61.965C8.90796 62.3305 9.20546 62.628 9.57096 62.645C13.0475 62.7725 15.759 66.2575 16.3965 68.867C16.473 69.173 16.745 69.3855 17.0595 69.3855H67.915C68.2295 69.3855 68.5015 69.173 68.578 68.867C69.2155 66.2575 71.927 62.7725 75.4035 62.645C75.769 62.628 76.0665 62.339 76.0665 61.965V57.2985C76.0665 57.188 75.9815 57.103 75.871 57.103C74.3155 57.103 72.624 55.8535 71.7485 54.638C70.873 53.4225 71.213 52.887 71.7485 52.1475C72.624 50.932 74.3155 49.6825 75.871 49.6825C75.9815 49.6825 76.0665 49.5975 76.0665 49.487V47.379C76.0665 47.2685 75.9815 47.1835 75.871 47.1835C74.3155 47.1835 72.624 45.934 71.7485 44.7185C71.213 43.979 71.213 42.9675 71.7485 42.228C72.624 41.0125 74.3155 39.763 75.871 39.763L75.8795 39.7715Z" fill="#333333"/>
<path d="M44.4975 44.2255C44.4975 43.418 44.4125 38.012 44.3955 36.176C44.3785 34.34 44.5145 35.819 44.7015 35.768C52.156 33.5325 56.355 31.535 57.358 31.042C58.361 30.549 57.596 30.821 57.596 30.6595V26.299C57.596 25.993 57.29 25.789 57.0095 25.908C55.3435 26.5965 50.371 28.6195 44.8885 30.396C44.6165 30.481 44.336 30.2855 44.3275 29.9965C44.319 29.1805 44.3105 27.8885 44.2935 27.166C44.2765 26.4435 44.4125 26.8175 44.5825 26.758L56.0915 22.6695C57.069 22.389 58.3355 22.219 59.4915 22.219H60.554C60.792 22.219 60.979 22.032 60.979 21.794V17.0595C60.979 16.031 59.942 15.334 58.99 15.7165L40.4345 23.2135C40.2645 23.2815 40.1625 23.443 40.171 23.6215C40.239 25.4235 40.5875 35.4535 40.5875 39.4315C40.5875 43.4095 40.5195 44.2 40.443 47.294C40.443 47.345 40.392 47.379 40.3495 47.3705C38.709 47.1155 38.5475 47.1155 37.4 47.1155C33.524 47.1155 30.3875 50.0905 30.3875 54.298C30.3875 58.5055 33.524 61.3955 37.4 61.3955C41.276 61.3955 44.4125 58.2675 44.4125 54.298C44.4125 54.298 44.4975 47.957 44.4975 44.2255Z" fill="#333333"/>
</svg>
