<svg width="89" height="71" viewBox="0 0 89 71" fill="none" xmlns="http://www.w3.org/2000/svg">
<path d="M23.6393 40.7032H22.9853C21.7211 40.7032 20.6963 41.7281 20.6963 42.9922C20.6963 44.2564 21.7211 45.2812 22.9853 45.2812H23.6393C24.9035 45.2812 25.9283 44.2564 25.9283 42.9922C25.9283 41.7281 24.9035 40.7032 23.6393 40.7032Z" fill="#0A84FF"/>
<path d="M62.2253 32.6372H53.2873C52.0231 32.6372 50.9983 33.662 50.9983 34.9262C50.9983 36.1904 52.0231 37.2152 53.2873 37.2152H62.2253C63.4895 37.2152 64.5143 36.1904 64.5143 34.9262C64.5143 33.662 63.4895 32.6372 62.2253 32.6372Z" fill="#00ADB5"/>
<path d="M62.2253 40.7032H53.2873C52.0231 40.7032 50.9983 41.7281 50.9983 42.9922C50.9983 44.2564 52.0231 45.2812 53.2873 45.2812H62.2253C63.4895 45.2812 64.5143 44.2564 64.5143 42.9922C64.5143 41.7281 63.4895 40.7032 62.2253 40.7032Z" fill="#0A84FF"/>
<path d="M62.2253 48.9872H53.2873C52.0231 48.9872 50.9983 50.012 50.9983 51.2762C50.9983 52.5404 52.0231 53.5652 53.2873 53.5652H62.2253C63.4895 53.5652 64.5143 52.5404 64.5143 51.2762C64.5143 50.012 63.4895 48.9872 62.2253 48.9872Z" fill="#A2D2FF"/>
<path d="M34.9753 32.6372H22.9853C21.7211 32.6372 20.6963 33.662 20.6963 34.9262C20.6963 36.1904 21.7211 37.2152 22.9853 37.2152H34.9753C36.2395 37.2152 37.2643 36.1904 37.2643 34.9262C37.2643 33.662 36.2395 32.6372 34.9753 32.6372Z" fill="#00ADB5"/>
<path d="M24.1843 50.6658C24.1843 49.7026 23.4035 48.9218 22.4403 48.9218C21.4771 48.9218 20.6963 49.7026 20.6963 50.6658V51.7558C20.6963 52.7189 21.4771 53.4998 22.4403 53.4998C23.4035 53.4998 24.1843 52.7189 24.1843 51.7558V50.6658Z" fill="#A2D2FF"/>
<path d="M86.6693 32.4784L86.674 32.4832H86.8811C87.299 32.4832 87.6318 32.1503 87.6318 31.7325V25.7484C87.6318 24.9994 87.0269 24.4105 86.3048 24.3769L86.2999 24.3767C84.2373 24.3011 82.3673 23.2242 80.8969 21.7262C79.4252 20.227 78.4 18.3512 78.0145 16.7786L78.014 16.7763C77.8604 16.1619 77.312 15.7327 76.6787 15.7327H68.3184C67.7371 15.7327 67.2734 16.1964 67.2734 16.7777V63.0264C67.2734 63.9493 66.5163 64.7064 65.5934 64.7064H19.5954C18.6725 64.7064 17.9154 63.9493 17.9154 63.0264V23.1869C17.9154 22.288 18.6207 21.5485 19.5204 21.5064C19.5205 21.5064 19.5206 21.5064 19.5206 21.5064L36.4762 20.7327C36.477 20.7326 36.4778 20.7326 36.4787 20.7326C37.0555 20.7099 37.4809 20.2242 37.481 19.6771L37.4808 19.6696L37.4373 16.7559C37.4373 16.7545 37.4373 16.7531 37.4373 16.7517C37.435 16.1703 36.9482 15.7218 36.3923 15.7218H16.8704H11.4531C10.8198 15.7218 10.2714 16.151 10.1178 16.7654L10.1172 16.768C9.73169 18.346 8.70656 20.2216 7.23511 21.7192C5.7649 23.2157 3.89492 24.2902 1.83187 24.3658L1.83187 24.3658L1.82697 24.366C1.10896 24.3994 0.5 24.9736 0.5 25.7375V31.7216C0.5 32.1534 0.857938 32.4723 1.2507 32.4723C2.12046 32.4723 3.06791 32.825 3.95176 33.3896C4.83179 33.9519 5.60799 34.6987 6.13149 35.4255L6.13223 35.4266C6.69222 36.1999 6.69222 37.2604 6.13223 38.0337L6.13149 38.0348C5.60799 38.7616 4.83179 39.5084 3.95176 40.0707C3.06791 40.6353 2.12046 40.988 1.2507 40.988C0.832839 40.988 0.5 41.3209 0.5 41.7387V44.4419C0.5 44.8597 0.832859 45.1926 1.2507 45.1926C2.12046 45.1926 3.06791 45.5453 3.95176 46.1099C4.83179 46.6722 5.60799 47.419 6.13149 48.1458C6.66018 48.8798 6.75341 49.316 6.71885 49.6235C6.68133 49.9575 6.48779 50.263 6.13223 50.754L6.13149 50.7551C5.60799 51.4819 4.83179 52.2287 3.95176 52.791C3.06791 53.3556 2.12046 53.7083 1.2507 53.7083C0.832852 53.7083 0.5 54.0412 0.5 54.459V60.4431C0.5 61.1922 1.10487 61.781 1.82697 61.8146L1.83187 61.8148C3.89492 61.8904 5.7649 62.9649 7.23511 64.4614C8.70656 65.959 9.73169 67.8346 10.1172 69.4126L10.1178 69.4152C10.2714 70.0296 10.8198 70.4588 11.4531 70.4588H76.6678C77.3011 70.4588 77.8495 70.0296 78.0031 69.4152L78.0037 69.4126C78.3892 67.8346 79.4143 65.959 80.8858 64.4614C82.356 62.9649 84.226 61.8904 86.289 61.8148L86.2939 61.8146C87.0119 61.7812 87.6209 61.207 87.6209 60.4431V54.459C87.6209 54.0411 87.288 53.7083 86.8702 53.7083C86.0004 53.7083 85.053 53.3556 84.1692 52.791C83.2891 52.2287 82.5129 51.4819 81.9894 50.7551C81.4607 50.0211 81.3675 49.5849 81.4021 49.2774C81.4396 48.9434 81.6331 48.6379 81.9887 48.1469L81.9894 48.1458C82.5129 47.419 83.2891 46.6722 84.1692 46.1099C85.053 45.5453 86.0004 45.1926 86.8702 45.1926C87.288 45.1926 87.6209 44.8598 87.6209 44.4419V41.7387C87.6209 41.3209 87.288 40.988 86.8702 40.988C86.0004 40.988 85.053 40.6353 84.1692 40.0707C83.2891 39.5084 82.5129 38.7616 81.9894 38.0348L81.9887 38.0337C81.4287 37.2604 81.4287 36.1999 81.9887 35.4266L81.9894 35.4255C82.5129 34.6987 83.2891 33.9519 84.1692 33.3896C84.9854 32.8682 85.8558 32.5275 86.6693 32.4784Z" fill="#333333" stroke="#00ADB5"/>
<path d="M47.0311 27.3317L47.0312 27.3319L47.0432 27.3283C56.6323 24.4526 62.0426 21.8804 63.3502 21.2377C63.667 21.082 63.8768 20.9713 63.9979 20.8904C64.03 20.8689 64.069 20.8409 64.1064 20.807C64.1318 20.784 64.2129 20.7095 64.2591 20.5874C64.2861 20.5161 64.3072 20.412 64.2804 20.2922C64.2531 20.1696 64.1866 20.0797 64.1216 20.0214C64.0557 19.9624 63.9856 19.9304 63.9348 19.9132V14.7067C63.9348 13.961 63.1823 13.4523 62.4899 13.744C60.3562 14.6258 53.9973 17.2126 46.9889 19.4837C46.9536 19.4939 46.9222 19.4696 46.9198 19.4359C46.9173 19.1874 46.9147 18.9039 46.9119 18.6037C46.9032 17.6445 46.8928 16.5141 46.8762 15.8068C46.876 15.7973 46.8758 15.788 46.8756 15.7789C46.8878 15.7754 46.8999 15.7715 46.9121 15.7673L46.9143 15.7665L61.6582 10.5288C62.8602 10.1859 64.4305 9.97474 65.8656 9.97474H67.2281C67.8094 9.97474 68.2731 9.51109 68.2731 8.92974V2.85845C68.2731 1.18405 66.584 0.0503276 65.036 0.672292L65.0351 0.672654L41.2421 10.2858C41.2417 10.286 41.2413 10.2861 41.2409 10.2863C40.826 10.4528 40.5705 10.8545 40.5903 11.2943C40.6778 13.6138 41.1239 26.459 41.1239 31.5472C41.1239 35.2613 41.0778 36.7995 41.0146 38.9021C40.9946 39.5702 40.9728 40.2952 40.9502 41.1652C39.2278 40.903 38.9248 40.9008 37.5364 40.9008C32.2895 40.9008 28.0439 44.9401 28.0439 50.6113C28.0439 56.2905 32.2975 60.2128 37.5364 60.2128C42.7854 60.2128 47.0272 55.976 47.0289 50.6147L47.029 50.6121L47.0292 50.5945L47.0301 50.5254L47.0336 50.259C47.0366 50.0272 47.0408 49.6908 47.0459 49.2721C47.0562 48.4348 47.0698 47.2686 47.0834 45.9527C47.1107 43.3215 47.1379 40.0902 47.1379 37.6948C47.1379 37.14 47.1067 34.8934 47.0743 32.5652C47.0462 30.5422 47.0172 28.4575 47.0071 27.3679C47.007 27.3578 47.0069 27.3477 47.0069 27.3377C47.015 27.3359 47.0231 27.3339 47.0311 27.3317ZM63.6047 19.8746C63.605 19.8746 63.6071 19.8748 63.6106 19.8754C63.6061 19.8749 63.6043 19.8746 63.6047 19.8746Z" fill="#333333" stroke="#00ADB5"/>
</svg>
